# xmcd
#
# Track frame offsets:
#	150
#	14037
#	26728
#	41731
#	59024
#	74060
#	98404
#	112647
#	125434
#	139424
#	153679
#	169507
#	188942
#	202524
#
# Disc length: 2874 seconds
#
# Revision: 0
# Processed by: cddbd v1.5.2PL0 Copyright (c) Steve Scherf et al.
# Submitted via: EasyCDDAExtractor 16.0.1.1
#
DISCID=c40b380e
DTITLE=Emmylou Harris - Last Date
DYEAR=1982
DGENRE=Country
TTITLE0=I'm Movin' On
TTITLE1=It's Not Love (But It's Not Bad)
TTITLE2=So Sad (To Watch Good Love Go Bad)
TTITLE3=Return Of The Grievous Angel
TTITLE4=Restless
TTITLE5=Racing In The Street
TTITLE6=Long May You Run
TTITLE7=We'll Sweep Out The Ashes (In The Morning)
TTITLE8=Juanita
TTITLE9=Devil In Disguise
TTITLE10=(Lost His Love) On Our Last Date
TTITLE11=Buckaroo-Love's Gonna Live Here (Medley)
TTITLE12=Another Pot O' Tea
TTITLE13=Maybe Tonight (Bonus Track)
EXTD=
EXTT0=
EXTT1=
EXTT2=
EXTT3=
EXTT4=
EXTT5=
EXTT6=
EXTT7=
EXTT8=
EXTT9=
EXTT10=
EXTT11=
EXTT12=
EXTT13=
PLAYORDER=
